<svg width="1080" height="1080" viewBox="0 0 1080 1080" fill="none" xmlns="http://www.w3.org/2000/svg">
<path d="M332 900L124 540L332 180H748L956 540L748 900H332ZM378 820H702L863 540L702 260H378L216 540L378 820Z" fill="#5666AD"/>
<path d="M441.2 686V406H567.2C585.067 406 601.2 409.867 615.6 417.6C630.267 425.333 641.733 436 650 449.6C658.267 462.933 662.4 478.133 662.4 495.2C662.4 512.8 658.267 528.667 650 542.8C641.733 556.667 630.4 567.6 616 575.6C601.6 583.6 585.333 587.6 567.2 587.6H506V686H441.2ZM596.4 686L525.2 559.6L594.8 549.6L674 686H596.4ZM506 535.6H561.2C568.133 535.6 574.133 534.133 579.2 531.2C584.533 528 588.533 523.6 591.2 518C594.133 512.4 595.6 506 595.6 498.8C595.6 491.6 594 485.333 590.8 480C587.6 474.4 582.933 470.133 576.8 467.2C570.933 464.267 563.733 462.8 555.2 462.8H506V535.6Z" fill="#5666AD"/>
<rect x="234" y="380.071" width="201" height="31" transform="rotate(-60 234 380.071)" fill="white"/>
<rect x="735" y="832.071" width="201" height="31" transform="rotate(-60 735 832.071)" fill="white"/>
</svg>
